<svg width="28" height="27" viewBox="0 0 28 27" fill="none" xmlns="http://www.w3.org/2000/svg">
<g id="icon-park-outline:commodity">
<g id="Group">
<path id="Vector" d="M6.00185 5.4855C6.03585 5.21337 6.1681 4.96303 6.37371 4.78154C6.57933 4.60006 6.84416 4.49994 7.11841 4.5H20.8817C21.1559 4.49994 21.4207 4.60006 21.6264 4.78154C21.832 4.96303 21.9642 5.21337 21.9982 5.4855L23.967 21.2355C23.9868 21.3938 23.9726 21.5545 23.9256 21.7069C23.8785 21.8594 23.7995 22 23.6939 22.1196C23.5884 22.2392 23.4585 22.335 23.3131 22.4006C23.1677 22.4661 23.0099 22.5 22.8504 22.5H5.14966C4.99012 22.5 4.83241 22.4661 4.68697 22.4006C4.54154 22.335 4.41172 22.2392 4.30612 22.1196C4.20052 22 4.12157 21.8594 4.0745 21.7069C4.02743 21.5545 4.01331 21.3938 4.0331 21.2355L6.00185 5.4855Z" stroke="black" stroke-width="2" stroke-linejoin="round"/>
<path id="Vector_2" d="M8.9375 10.125C8.9375 10.125 10.0625 12.375 14 12.375C17.9375 12.375 19.0625 10.125 19.0625 10.125" stroke="black" stroke-width="2" stroke-linecap="round" stroke-linejoin="round"/>
</g>
</g>
</svg>
